<svg xmlns="http://www.w3.org/2000/svg" viewBox="0 0 103.2 168.2" width="103.2" height="168.2">
<defs><clipPath id="c"><rect x="6" y="6" width="91.2" height="156.2" rx="5"/></clipPath></defs>
<rect width="103.2" height="168.2" rx="9" fill="#e1131c"/>
<rect x="5" y="5" width="93.2" height="158.2" rx="5.5" fill="#ffffff"/>
<g clip-path="url(#c)"><path d="M14 6 C 6 52.89403896033764 22 88.06456818059087 14 123.2350974008441" fill="none" stroke="#141414" stroke-width="1.4" stroke-linecap="round" stroke-linejoin="round" /><path d="M0 -5.5 C 2.6 -2.75 2.6 2.75 0 5.5 C -2.6 2.75 -2.6 -2.75 0 -5.5Z" fill="#141414"  transform="translate(17 20.65) rotate(80)"/><path d="M0 -5.5 C 2.6 -2.75 2.6 2.75 0 5.5 C -2.6 2.75 -2.6 -2.75 0 -5.5Z" fill="#141414"  transform="translate(11 35.31) rotate(-80)"/><path d="M0 -5.5 C 2.6 -2.75 2.6 2.75 0 5.5 C -2.6 2.75 -2.6 -2.75 0 -5.5Z" fill="#141414"  transform="translate(17 49.96) rotate(80)"/><path d="M0 -5.5 C 2.6 -2.75 2.6 2.75 0 5.5 C -2.6 2.75 -2.6 -2.75 0 -5.5Z" fill="#141414"  transform="translate(11 64.62) rotate(-80)"/><path d="M0 -5.5 C 2.6 -2.75 2.6 2.75 0 5.5 C -2.6 2.75 -2.6 -2.75 0 -5.5Z" fill="#141414"  transform="translate(17 79.27) rotate(80)"/><path d="M0 -5.5 C 2.6 -2.75 2.6 2.75 0 5.5 C -2.6 2.75 -2.6 -2.75 0 -5.5Z" fill="#141414"  transform="translate(11 93.93) rotate(-80)"/><path d="M0 -5.5 C 2.6 -2.75 2.6 2.75 0 5.5 C -2.6 2.75 -2.6 -2.75 0 -5.5Z" fill="#141414"  transform="translate(17 108.58) rotate(80)"/><path d="M34 6 C 26 38.28504557348788 42 62.49882975360378 34 86.7126139337197" fill="none" stroke="#141414" stroke-width="1.4" stroke-linecap="round" stroke-linejoin="round" /><path d="M0 -5.5 C 2.6 -2.75 2.6 2.75 0 5.5 C -2.6 2.75 -2.6 -2.75 0 -5.5Z" fill="#141414"  transform="translate(37 16.09) rotate(80)"/><path d="M0 -5.5 C 2.6 -2.75 2.6 2.75 0 5.5 C -2.6 2.75 -2.6 -2.75 0 -5.5Z" fill="#141414"  transform="translate(31 26.18) rotate(-80)"/><path d="M0 -5.5 C 2.6 -2.75 2.6 2.75 0 5.5 C -2.6 2.75 -2.6 -2.75 0 -5.5Z" fill="#141414"  transform="translate(37 36.27) rotate(80)"/><path d="M0 -5.5 C 2.6 -2.75 2.6 2.75 0 5.5 C -2.6 2.75 -2.6 -2.75 0 -5.5Z" fill="#141414"  transform="translate(31 46.36) rotate(-80)"/><path d="M0 -5.5 C 2.6 -2.75 2.6 2.75 0 5.5 C -2.6 2.75 -2.6 -2.75 0 -5.5Z" fill="#141414"  transform="translate(37 56.45) rotate(80)"/><path d="M0 -5.5 C 2.6 -2.75 2.6 2.75 0 5.5 C -2.6 2.75 -2.6 -2.75 0 -5.5Z" fill="#141414"  transform="translate(31 66.53) rotate(-80)"/><path d="M0 -5.5 C 2.6 -2.75 2.6 2.75 0 5.5 C -2.6 2.75 -2.6 -2.75 0 -5.5Z" fill="#141414"  transform="translate(37 76.62) rotate(80)"/><path d="M62 6 C 54 45.88757233694196 70 75.80325158964843 62 105.7189308423549" fill="none" stroke="#141414" stroke-width="1.4" stroke-linecap="round" stroke-linejoin="round" /><path d="M0 -5.5 C 2.6 -2.75 2.6 2.75 0 5.5 C -2.6 2.75 -2.6 -2.75 0 -5.5Z" fill="#141414"  transform="translate(65 18.46) rotate(80)"/><path d="M0 -5.5 C 2.6 -2.75 2.6 2.75 0 5.5 C -2.6 2.75 -2.6 -2.75 0 -5.5Z" fill="#141414"  transform="translate(59 30.93) rotate(-80)"/><path d="M0 -5.5 C 2.6 -2.75 2.6 2.75 0 5.5 C -2.6 2.75 -2.6 -2.75 0 -5.5Z" fill="#141414"  transform="translate(65 43.39) rotate(80)"/><path d="M0 -5.5 C 2.6 -2.75 2.6 2.75 0 5.5 C -2.6 2.75 -2.6 -2.75 0 -5.5Z" fill="#141414"  transform="translate(59 55.86) rotate(-80)"/><path d="M0 -5.5 C 2.6 -2.75 2.6 2.75 0 5.5 C -2.6 2.75 -2.6 -2.75 0 -5.5Z" fill="#141414"  transform="translate(65 68.32) rotate(80)"/><path d="M0 -5.5 C 2.6 -2.75 2.6 2.75 0 5.5 C -2.6 2.75 -2.6 -2.75 0 -5.5Z" fill="#141414"  transform="translate(59 80.79) rotate(-80)"/><path d="M0 -5.5 C 2.6 -2.75 2.6 2.75 0 5.5 C -2.6 2.75 -2.6 -2.75 0 -5.5Z" fill="#141414"  transform="translate(65 93.25) rotate(80)"/><path d="M88 6 C 80 39.55268710292876 96 64.71720243012533 88 89.8817177573219" fill="none" stroke="#141414" stroke-width="1.4" stroke-linecap="round" stroke-linejoin="round" /><path d="M0 -5.5 C 2.6 -2.75 2.6 2.75 0 5.5 C -2.6 2.75 -2.6 -2.75 0 -5.5Z" fill="#141414"  transform="translate(91 16.49) rotate(80)"/><path d="M0 -5.5 C 2.6 -2.75 2.6 2.75 0 5.5 C -2.6 2.75 -2.6 -2.75 0 -5.5Z" fill="#141414"  transform="translate(85 26.97) rotate(-80)"/><path d="M0 -5.5 C 2.6 -2.75 2.6 2.75 0 5.5 C -2.6 2.75 -2.6 -2.75 0 -5.5Z" fill="#141414"  transform="translate(91 37.46) rotate(80)"/><path d="M0 -5.5 C 2.6 -2.75 2.6 2.75 0 5.5 C -2.6 2.75 -2.6 -2.75 0 -5.5Z" fill="#141414"  transform="translate(85 47.94) rotate(-80)"/><path d="M0 -5.5 C 2.6 -2.75 2.6 2.75 0 5.5 C -2.6 2.75 -2.6 -2.75 0 -5.5Z" fill="#141414"  transform="translate(91 58.43) rotate(80)"/><path d="M0 -5.5 C 2.6 -2.75 2.6 2.75 0 5.5 C -2.6 2.75 -2.6 -2.75 0 -5.5Z" fill="#141414"  transform="translate(85 68.91) rotate(-80)"/><path d="M0 -5.5 C 2.6 -2.75 2.6 2.75 0 5.5 C -2.6 2.75 -2.6 -2.75 0 -5.5Z" fill="#141414"  transform="translate(91 79.4) rotate(80)"/><g transform="translate(52 84) rotate(5)"><path d="M-12 -50 L12 -48 L12 50 L-12 48 Z" fill="#e1131c" stroke="#141414" stroke-width="0.8"/></g></g>
</svg>