<svg xmlns="http://www.w3.org/2000/svg" viewBox="0 0 103.2 168.2" width="103.2" height="168.2">
<defs><clipPath id="c"><rect x="6" y="6" width="91.2" height="156.2" rx="5"/></clipPath></defs>
<rect width="103.2" height="168.2" rx="9" fill="#e1131c"/>
<rect x="5" y="5" width="93.2" height="158.2" rx="5.5" fill="#ffffff"/>
<g clip-path="url(#c)"><path d="M16.4 150 Q 18 100 10 50 Q 17.6 105 23.6 150Z" fill="#141414"/><path d="M38.6 150 Q 43.2 90 48 30 Q 49 96 45.4 150Z" fill="#141414"/><path d="M62.6 150 Q 68.8 102 80 54 Q 77.8 106.8 69.4 150Z" fill="#141414"/><path d="M81 150 Q 85.6 108 92 66 Q 91.8 112.2 87 150Z" fill="#141414"/><path d="M48 87.19999999999999 L48 48.8" fill="none" stroke="#141414" stroke-width="1.6" stroke-linecap="round" stroke-linejoin="round" /><g transform="translate(48 44) scale(1.2)"><ellipse cx="-5" cy="-6" rx="4.8" ry="11" fill="#2b72c8" stroke="#141414" stroke-width="0.9" transform="rotate(-18 -5 -6)"/><ellipse cx="5" cy="-6" rx="4.8" ry="11" fill="#2b72c8" stroke="#141414" stroke-width="0.9" transform="rotate(18 5 -6)"/><ellipse cx="-10" cy="7" rx="5.6" ry="10" fill="#3d86dd" stroke="#141414" stroke-width="0.9" transform="rotate(60 -10 7)"/><ellipse cx="10" cy="7" rx="5.6" ry="10" fill="#3d86dd" stroke="#141414" stroke-width="0.9" transform="rotate(-60 10 7)"/><ellipse cx="0" cy="11" rx="6" ry="10.5" fill="#2b72c8" stroke="#141414" stroke-width="0.9" /><ellipse cx="0" cy="8" rx="1.6" ry="6" fill="#f6c613"  /></g><g transform="translate(54 80) rotate(5)"><path d="M-12 -50 L12 -48 L12 50 L-12 48 Z" fill="#e1131c" stroke="#141414" stroke-width="0.8"/></g></g>
</svg>