<svg xmlns="http://www.w3.org/2000/svg" viewBox="0 0 103.2 168.2" width="103.2" height="168.2">
<defs><clipPath id="c"><rect x="6" y="6" width="91.2" height="156.2" rx="5"/></clipPath></defs>
<rect width="103.2" height="168.2" rx="9" fill="#e1131c"/>
<rect x="5" y="5" width="93.2" height="158.2" rx="5.5" fill="#ffffff"/>
<g clip-path="url(#c)"><g transform="translate(62 126) rotate(-8) scale(1.7)"><path d="M0 -22 C 14 -26 26 -12 24 2 C 22 14 10 22 0 26 C -10 22 -22 14 -24 2 C -26 -12 -14 -26 0 -22Z" fill="#141414"/><path d="M0 -16 L0 24 M0 0 L-14 -6 M0 0 L14 -6 M0 10 L-10 8 M0 10 L10 8" fill="none" stroke="#ffffff" stroke-width="0.7" stroke-linecap="round" stroke-linejoin="round" /></g><path d="M34 94 L34 46.4" fill="none" stroke="#141414" stroke-width="1.4" stroke-linecap="round" stroke-linejoin="round" /><g transform="translate(24.2 46.4) scale(1.4)"><path d="M-5 -4 L5 -4 L4 5 Q0 9 -4 5Z" fill="#4a8be0" stroke="#141414" stroke-width="0.7" stroke-linecap="round" stroke-linejoin="round" /><circle cx="0" cy="-4" r="1.4" fill="#a9c9f5" /></g><g transform="translate(43.02 54.8) scale(1.4)"><path d="M-5 -4 L5 -4 L4 5 Q0 9 -4 5Z" fill="#4a8be0" stroke="#141414" stroke-width="0.7" stroke-linecap="round" stroke-linejoin="round" /><circle cx="0" cy="-4" r="1.4" fill="#a9c9f5" /></g><g transform="translate(25.77 63.2) scale(1.4)"><path d="M-5 -4 L5 -4 L4 5 Q0 9 -4 5Z" fill="#4a8be0" stroke="#141414" stroke-width="0.7" stroke-linecap="round" stroke-linejoin="round" /><circle cx="0" cy="-4" r="1.4" fill="#a9c9f5" /></g><g transform="translate(41.45 71.6) scale(1.4)"><path d="M-5 -4 L5 -4 L4 5 Q0 9 -4 5Z" fill="#4a8be0" stroke="#141414" stroke-width="0.7" stroke-linecap="round" stroke-linejoin="round" /><circle cx="0" cy="-4" r="1.4" fill="#a9c9f5" /></g><g transform="translate(27.34 80) scale(1.4)"><path d="M-5 -4 L5 -4 L4 5 Q0 9 -4 5Z" fill="#4a8be0" stroke="#141414" stroke-width="0.7" stroke-linecap="round" stroke-linejoin="round" /><circle cx="0" cy="-4" r="1.4" fill="#a9c9f5" /></g><g transform="translate(39.88 88.4) scale(1.4)"><path d="M-5 -4 L5 -4 L4 5 Q0 9 -4 5Z" fill="#4a8be0" stroke="#141414" stroke-width="0.7" stroke-linecap="round" stroke-linejoin="round" /><circle cx="0" cy="-4" r="1.4" fill="#a9c9f5" /></g><g transform="translate(28.9 96.8) scale(1.4)"><path d="M-5 -4 L5 -4 L4 5 Q0 9 -4 5Z" fill="#4a8be0" stroke="#141414" stroke-width="0.7" stroke-linecap="round" stroke-linejoin="round" /><circle cx="0" cy="-4" r="1.4" fill="#a9c9f5" /></g><circle cx="34" cy="42.2" r="4.48" fill="#4a8be0" stroke="#141414" stroke-width="0.6"/><path d="M8 119 L8 81.6" fill="none" stroke="#141414" stroke-width="1.4" stroke-linecap="round" stroke-linejoin="round" /><g transform="translate(0.3 81.6) scale(1.1)"><path d="M-5 -4 L5 -4 L4 5 Q0 9 -4 5Z" fill="#4a8be0" stroke="#141414" stroke-width="0.7" stroke-linecap="round" stroke-linejoin="round" /><circle cx="0" cy="-4" r="1.4" fill="#a9c9f5" /></g><g transform="translate(15.08 88.2) scale(1.1)"><path d="M-5 -4 L5 -4 L4 5 Q0 9 -4 5Z" fill="#4a8be0" stroke="#141414" stroke-width="0.7" stroke-linecap="round" stroke-linejoin="round" /><circle cx="0" cy="-4" r="1.4" fill="#a9c9f5" /></g><g transform="translate(1.53 94.8) scale(1.1)"><path d="M-5 -4 L5 -4 L4 5 Q0 9 -4 5Z" fill="#4a8be0" stroke="#141414" stroke-width="0.7" stroke-linecap="round" stroke-linejoin="round" /><circle cx="0" cy="-4" r="1.4" fill="#a9c9f5" /></g><g transform="translate(13.85 101.4) scale(1.1)"><path d="M-5 -4 L5 -4 L4 5 Q0 9 -4 5Z" fill="#4a8be0" stroke="#141414" stroke-width="0.7" stroke-linecap="round" stroke-linejoin="round" /><circle cx="0" cy="-4" r="1.4" fill="#a9c9f5" /></g><g transform="translate(2.76 108) scale(1.1)"><path d="M-5 -4 L5 -4 L4 5 Q0 9 -4 5Z" fill="#4a8be0" stroke="#141414" stroke-width="0.7" stroke-linecap="round" stroke-linejoin="round" /><circle cx="0" cy="-4" r="1.4" fill="#a9c9f5" /></g><g transform="translate(12.62 114.6) scale(1.1)"><path d="M-5 -4 L5 -4 L4 5 Q0 9 -4 5Z" fill="#4a8be0" stroke="#141414" stroke-width="0.7" stroke-linecap="round" stroke-linejoin="round" /><circle cx="0" cy="-4" r="1.4" fill="#a9c9f5" /></g><g transform="translate(4 121.2) scale(1.1)"><path d="M-5 -4 L5 -4 L4 5 Q0 9 -4 5Z" fill="#4a8be0" stroke="#141414" stroke-width="0.7" stroke-linecap="round" stroke-linejoin="round" /><circle cx="0" cy="-4" r="1.4" fill="#a9c9f5" /></g><circle cx="8" cy="78.3" r="3.52" fill="#4a8be0" stroke="#141414" stroke-width="0.6"/></g>
</svg>