<svg xmlns="http://www.w3.org/2000/svg" viewBox="0 0 103.2 168.2" width="103.2" height="168.2">
<defs><clipPath id="c"><rect x="6" y="6" width="91.2" height="156.2" rx="5"/></clipPath></defs>
<rect width="103.2" height="168.2" rx="9" fill="#e1131c"/>
<rect x="5" y="5" width="93.2" height="158.2" rx="5.5" fill="#ffffff"/>
<g clip-path="url(#c)"><g transform="translate(24 124) rotate(-12) scale(1.05)"><path d="M0 -22 C 14 -26 26 -12 24 2 C 22 14 10 22 0 26 C -10 22 -22 14 -24 2 C -26 -12 -14 -26 0 -22Z" fill="#141414"/><path d="M0 -16 L0 24 M0 0 L-14 -6 M0 0 L14 -6 M0 10 L-10 8 M0 10 L10 8" fill="none" stroke="#ffffff" stroke-width="0.7" stroke-linecap="round" stroke-linejoin="round" /></g><g transform="translate(78 138) rotate(14) scale(0.9)"><path d="M0 -22 C 14 -26 26 -12 24 2 C 22 14 10 22 0 26 C -10 22 -22 14 -24 2 C -26 -12 -14 -26 0 -22Z" fill="#141414"/><path d="M0 -16 L0 24 M0 0 L-14 -6 M0 0 L14 -6 M0 10 L-10 8 M0 10 L10 8" fill="none" stroke="#ffffff" stroke-width="0.7" stroke-linecap="round" stroke-linejoin="round" /></g><path d="M78 93 L78 55.6" fill="none" stroke="#141414" stroke-width="1.4" stroke-linecap="round" stroke-linejoin="round" /><g transform="translate(70.3 55.6) scale(1.1)"><path d="M-5 -4 L5 -4 L4 5 Q0 9 -4 5Z" fill="#4a8be0" stroke="#141414" stroke-width="0.7" stroke-linecap="round" stroke-linejoin="round" /><circle cx="0" cy="-4" r="1.4" fill="#a9c9f5" /></g><g transform="translate(85.08 62.2) scale(1.1)"><path d="M-5 -4 L5 -4 L4 5 Q0 9 -4 5Z" fill="#4a8be0" stroke="#141414" stroke-width="0.7" stroke-linecap="round" stroke-linejoin="round" /><circle cx="0" cy="-4" r="1.4" fill="#a9c9f5" /></g><g transform="translate(71.53 68.8) scale(1.1)"><path d="M-5 -4 L5 -4 L4 5 Q0 9 -4 5Z" fill="#4a8be0" stroke="#141414" stroke-width="0.7" stroke-linecap="round" stroke-linejoin="round" /><circle cx="0" cy="-4" r="1.4" fill="#a9c9f5" /></g><g transform="translate(83.85 75.4) scale(1.1)"><path d="M-5 -4 L5 -4 L4 5 Q0 9 -4 5Z" fill="#4a8be0" stroke="#141414" stroke-width="0.7" stroke-linecap="round" stroke-linejoin="round" /><circle cx="0" cy="-4" r="1.4" fill="#a9c9f5" /></g><g transform="translate(72.76 82) scale(1.1)"><path d="M-5 -4 L5 -4 L4 5 Q0 9 -4 5Z" fill="#4a8be0" stroke="#141414" stroke-width="0.7" stroke-linecap="round" stroke-linejoin="round" /><circle cx="0" cy="-4" r="1.4" fill="#a9c9f5" /></g><g transform="translate(82.62 88.6) scale(1.1)"><path d="M-5 -4 L5 -4 L4 5 Q0 9 -4 5Z" fill="#4a8be0" stroke="#141414" stroke-width="0.7" stroke-linecap="round" stroke-linejoin="round" /><circle cx="0" cy="-4" r="1.4" fill="#a9c9f5" /></g><g transform="translate(74 95.2) scale(1.1)"><path d="M-5 -4 L5 -4 L4 5 Q0 9 -4 5Z" fill="#4a8be0" stroke="#141414" stroke-width="0.7" stroke-linecap="round" stroke-linejoin="round" /><circle cx="0" cy="-4" r="1.4" fill="#a9c9f5" /></g><circle cx="78" cy="52.3" r="3.52" fill="#4a8be0" stroke="#141414" stroke-width="0.6"/><g transform="translate(44 70) scale(1.15)">
<path d="M10 4 C 30 10 34 30 20 42 C 28 28 18 18 6 14Z" fill="#e1131c" stroke="#141414" stroke-width="0.9" stroke-linecap="round" stroke-linejoin="round" />
<path d="M14 8 C 40 14 48 38 30 54 C 40 36 28 22 10 14Z" fill="#141414"  />
<path d="M12 14 C 30 28 28 44 14 56 C 20 42 16 30 6 22Z" fill="#e1131c" stroke="#141414" stroke-width="0.9" stroke-linecap="round" stroke-linejoin="round" />
<path d="M-18 -6 C-18 -22 8 -26 18 -10 C 24 2 18 14 0 18 C -14 18 -22 6 -18 -6Z" fill="#141414"  />
<path d="M-8 -4 C 0 -14 14 -10 14 0 C 10 8 -2 8 -8 -4Z" fill="#e1131c" stroke="#141414" stroke-width="0.8" stroke-linecap="round" stroke-linejoin="round" />
<path d="M-14 -22 C-22 -34 -14 -40 -8 -34 C -10 -28 -8 -26 -4 -24Z" fill="#141414"  />
<path d="M-6 -30 l-6 -12 l8 6 l2 -12 l3 12 l8 -6 l-4 12Z" fill="#e1131c" stroke="#141414" stroke-width="0.7" stroke-linecap="round" stroke-linejoin="round" />
<circle cx="-12" cy="-18" r="5.4" fill="#e1131c" stroke="#141414" stroke-width="0.8"/>
<circle cx="-14" cy="-19" r="1.3" fill="#141414" />
<path d="M-17 -16 L-30 -12 L-17 -11Z" fill="#f6c613" stroke="#141414" stroke-width="0.7" stroke-linecap="round" stroke-linejoin="round" />
</g><circle cx="26" cy="150" r="8.5" fill="#e1131c" stroke="#ffffff" stroke-width="1.2"/><text x="26" y="153.23" font-size="10.63" font-weight="900" fill="#ffffff" text-anchor="middle" font-family="'Noto Serif KR','Noto Serif CJK KR','Noto Serif SC','Nanum Myeongjo',serif">光</text></g>
</svg>