<svg xmlns="http://www.w3.org/2000/svg" viewBox="0 0 103.2 168.2" width="103.2" height="168.2">
<defs><clipPath id="c"><rect x="6" y="6" width="91.2" height="156.2" rx="5"/></clipPath></defs>
<rect width="103.2" height="168.2" rx="9" fill="#e1131c"/>
<rect x="5" y="5" width="93.2" height="158.2" rx="5.5" fill="#ffffff"/>
<g clip-path="url(#c)"><path d="M8 24 Q 50 80 94 148" fill="none" stroke="#141414" stroke-width="2.4" stroke-linecap="round" stroke-linejoin="round" /><g transform="translate(6.37 40.71) rotate(318.1021763943136) scale(0.8600490677519702)"><polygon points="0 -17 3.53 -4.85 13.31 -4.33 5.71 1.85 8.23 11.33 0 6 -8.23 11.33 -5.71 1.85 -13.31 -4.33 -3.53 -4.85" fill="#e1131c" stroke="#141414" stroke-width="0.8" stroke-linejoin="round"/><path d="M0 0 L0 22" fill="none" stroke="#141414" stroke-width="0.9" stroke-linecap="round" stroke-linejoin="round" /><path d="M0 0 L-8 -8 M0 0 L8 -8 M0 -2 L0 -13" fill="none" stroke="#141414" stroke-width="0.5" stroke-linecap="round" stroke-linejoin="round" /></g><g transform="translate(17.06 38.28) rotate(9.67045146971941) scale(1.014248648681678)"><polygon points="0 -17 3.53 -4.85 13.31 -4.33 5.71 1.85 8.23 11.33 0 6 -8.23 11.33 -5.71 1.85 -13.31 -4.33 -3.53 -4.85" fill="#141414" stroke="#141414" stroke-width="0.8" stroke-linejoin="round"/><path d="M0 0 L0 22" fill="none" stroke="#141414" stroke-width="0.9" stroke-linecap="round" stroke-linejoin="round" /><path d="M0 0 L-8 -8 M0 0 L8 -8 M0 -2 L0 -13" fill="none" stroke="#141414" stroke-width="0.5" stroke-linecap="round" stroke-linejoin="round" /></g><g transform="translate(39.14 50.7) rotate(30.532485684379935) scale(0.8208981049596332)"><polygon points="0 -17 3.53 -4.85 13.31 -4.33 5.71 1.85 8.23 11.33 0 6 -8.23 11.33 -5.71 1.85 -13.31 -4.33 -3.53 -4.85" fill="#f08a1c" stroke="#141414" stroke-width="0.8" stroke-linejoin="round"/><path d="M0 0 L0 22" fill="none" stroke="#141414" stroke-width="0.9" stroke-linecap="round" stroke-linejoin="round" /><path d="M0 0 L-8 -8 M0 0 L8 -8 M0 -2 L0 -13" fill="none" stroke="#141414" stroke-width="0.5" stroke-linecap="round" stroke-linejoin="round" /></g><g transform="translate(33.17 72.69) rotate(20.86679371073842) scale(0.9663848064024934)"><polygon points="0 -17 3.53 -4.85 13.31 -4.33 5.71 1.85 8.23 11.33 0 6 -8.23 11.33 -5.71 1.85 -13.31 -4.33 -3.53 -4.85" fill="#e1131c" stroke="#141414" stroke-width="0.8" stroke-linejoin="round"/><path d="M0 0 L0 22" fill="none" stroke="#141414" stroke-width="0.9" stroke-linecap="round" stroke-linejoin="round" /><path d="M0 0 L-8 -8 M0 0 L8 -8 M0 -2 L0 -13" fill="none" stroke="#141414" stroke-width="0.5" stroke-linecap="round" stroke-linejoin="round" /></g><g transform="translate(48.33 89.23) rotate(214.25746112130582) scale(1.1537593734567055)"><polygon points="0 -17 3.53 -4.85 13.31 -4.33 5.71 1.85 8.23 11.33 0 6 -8.23 11.33 -5.71 1.85 -13.31 -4.33 -3.53 -4.85" fill="#f6c613" stroke="#141414" stroke-width="0.8" stroke-linejoin="round"/><path d="M0 0 L0 22" fill="none" stroke="#141414" stroke-width="0.9" stroke-linecap="round" stroke-linejoin="round" /><path d="M0 0 L-8 -8 M0 0 L8 -8 M0 -2 L0 -13" fill="none" stroke="#141414" stroke-width="0.5" stroke-linecap="round" stroke-linejoin="round" /></g><g transform="translate(71.18 102.55) rotate(221.0509731899947) scale(1.0363449147436767)"><polygon points="0 -17 3.53 -4.85 13.31 -4.33 5.71 1.85 8.23 11.33 0 6 -8.23 11.33 -5.71 1.85 -13.31 -4.33 -3.53 -4.85" fill="#141414" stroke="#141414" stroke-width="0.8" stroke-linejoin="round"/><path d="M0 0 L0 22" fill="none" stroke="#141414" stroke-width="0.9" stroke-linecap="round" stroke-linejoin="round" /><path d="M0 0 L-8 -8 M0 0 L8 -8 M0 -2 L0 -13" fill="none" stroke="#141414" stroke-width="0.5" stroke-linecap="round" stroke-linejoin="round" /></g><g transform="translate(68 106.36) rotate(340.5536529701203) scale(0.8543848139583133)"><polygon points="0 -17 3.53 -4.85 13.31 -4.33 5.71 1.85 8.23 11.33 0 6 -8.23 11.33 -5.71 1.85 -13.31 -4.33 -3.53 -4.85" fill="#e1131c" stroke="#141414" stroke-width="0.8" stroke-linejoin="round"/><path d="M0 0 L0 22" fill="none" stroke="#141414" stroke-width="0.9" stroke-linecap="round" stroke-linejoin="round" /><path d="M0 0 L-8 -8 M0 0 L8 -8 M0 -2 L0 -13" fill="none" stroke="#141414" stroke-width="0.5" stroke-linecap="round" stroke-linejoin="round" /></g><g transform="translate(66.01 134.69) rotate(175.50980617292225) scale(1.0139315658947454)"><polygon points="0 -17 3.53 -4.85 13.31 -4.33 5.71 1.85 8.23 11.33 0 6 -8.23 11.33 -5.71 1.85 -13.31 -4.33 -3.53 -4.85" fill="#141414" stroke="#141414" stroke-width="0.8" stroke-linejoin="round"/><path d="M0 0 L0 22" fill="none" stroke="#141414" stroke-width="0.9" stroke-linecap="round" stroke-linejoin="round" /><path d="M0 0 L-8 -8 M0 0 L8 -8 M0 -2 L0 -13" fill="none" stroke="#141414" stroke-width="0.5" stroke-linecap="round" stroke-linejoin="round" /></g><g transform="translate(78.79 146.73) rotate(28.59129005111754) scale(1.0614223452750595)"><polygon points="0 -17 3.53 -4.85 13.31 -4.33 5.71 1.85 8.23 11.33 0 6 -8.23 11.33 -5.71 1.85 -13.31 -4.33 -3.53 -4.85" fill="#f08a1c" stroke="#141414" stroke-width="0.8" stroke-linejoin="round"/><path d="M0 0 L0 22" fill="none" stroke="#141414" stroke-width="0.9" stroke-linecap="round" stroke-linejoin="round" /><path d="M0 0 L-8 -8 M0 0 L8 -8 M0 -2 L0 -13" fill="none" stroke="#141414" stroke-width="0.5" stroke-linecap="round" stroke-linejoin="round" /></g><path d="M96 20 Q 60 70 12 150" fill="none" stroke="#141414" stroke-width="2.4" stroke-linecap="round" stroke-linejoin="round" /><g transform="translate(89.08 24.25) rotate(299.1272711008787) scale(1.1360495522036218)"><polygon points="0 -17 3.53 -4.85 13.31 -4.33 5.71 1.85 8.23 11.33 0 6 -8.23 11.33 -5.71 1.85 -13.31 -4.33 -3.53 -4.85" fill="#e1131c" stroke="#141414" stroke-width="0.8" stroke-linejoin="round"/><path d="M0 0 L0 22" fill="none" stroke="#141414" stroke-width="0.9" stroke-linecap="round" stroke-linejoin="round" /><path d="M0 0 L-8 -8 M0 0 L8 -8 M0 -2 L0 -13" fill="none" stroke="#141414" stroke-width="0.5" stroke-linecap="round" stroke-linejoin="round" /></g><g transform="translate(82.63 36.85) rotate(155.96234782598913) scale(0.9821036449633539)"><polygon points="0 -17 3.53 -4.85 13.31 -4.33 5.71 1.85 8.23 11.33 0 6 -8.23 11.33 -5.71 1.85 -13.31 -4.33 -3.53 -4.85" fill="#141414" stroke="#141414" stroke-width="0.8" stroke-linejoin="round"/><path d="M0 0 L0 22" fill="none" stroke="#141414" stroke-width="0.9" stroke-linecap="round" stroke-linejoin="round" /><path d="M0 0 L-8 -8 M0 0 L8 -8 M0 -2 L0 -13" fill="none" stroke="#141414" stroke-width="0.5" stroke-linecap="round" stroke-linejoin="round" /></g><g transform="translate(60.24 62.92) rotate(320.29235042631626) scale(1.0479346412001178)"><polygon points="0 -17 3.53 -4.85 13.31 -4.33 5.71 1.85 8.23 11.33 0 6 -8.23 11.33 -5.71 1.85 -13.31 -4.33 -3.53 -4.85" fill="#f08a1c" stroke="#141414" stroke-width="0.8" stroke-linejoin="round"/><path d="M0 0 L0 22" fill="none" stroke="#141414" stroke-width="0.9" stroke-linecap="round" stroke-linejoin="round" /><path d="M0 0 L-8 -8 M0 0 L8 -8 M0 -2 L0 -13" fill="none" stroke="#141414" stroke-width="0.5" stroke-linecap="round" stroke-linejoin="round" /></g><g transform="translate(56.32 66.62) rotate(290.48152204602957) scale(0.8299878569203429)"><polygon points="0 -17 3.53 -4.85 13.31 -4.33 5.71 1.85 8.23 11.33 0 6 -8.23 11.33 -5.71 1.85 -13.31 -4.33 -3.53 -4.85" fill="#e1131c" stroke="#141414" stroke-width="0.8" stroke-linejoin="round"/><path d="M0 0 L0 22" fill="none" stroke="#141414" stroke-width="0.9" stroke-linecap="round" stroke-linejoin="round" /><path d="M0 0 L-8 -8 M0 0 L8 -8 M0 -2 L0 -13" fill="none" stroke="#141414" stroke-width="0.5" stroke-linecap="round" stroke-linejoin="round" /></g><g transform="translate(47.33 82.63) rotate(249.85592901706696) scale(0.9324148601503112)"><polygon points="0 -17 3.53 -4.85 13.31 -4.33 5.71 1.85 8.23 11.33 0 6 -8.23 11.33 -5.71 1.85 -13.31 -4.33 -3.53 -4.85" fill="#f6c613" stroke="#141414" stroke-width="0.8" stroke-linejoin="round"/><path d="M0 0 L0 22" fill="none" stroke="#141414" stroke-width="0.9" stroke-linecap="round" stroke-linejoin="round" /><path d="M0 0 L-8 -8 M0 0 L8 -8 M0 -2 L0 -13" fill="none" stroke="#141414" stroke-width="0.5" stroke-linecap="round" stroke-linejoin="round" /></g><g transform="translate(57.93 108.82) rotate(32.23547089844942) scale(0.9519432571483777)"><polygon points="0 -17 3.53 -4.85 13.31 -4.33 5.71 1.85 8.23 11.33 0 6 -8.23 11.33 -5.71 1.85 -13.31 -4.33 -3.53 -4.85" fill="#141414" stroke="#141414" stroke-width="0.8" stroke-linejoin="round"/><path d="M0 0 L0 22" fill="none" stroke="#141414" stroke-width="0.9" stroke-linecap="round" stroke-linejoin="round" /><path d="M0 0 L-8 -8 M0 0 L8 -8 M0 -2 L0 -13" fill="none" stroke="#141414" stroke-width="0.5" stroke-linecap="round" stroke-linejoin="round" /></g><g transform="translate(27.72 111.82) rotate(201.05590503662825) scale(1.0524894395726734)"><polygon points="0 -17 3.53 -4.85 13.31 -4.33 5.71 1.85 8.23 11.33 0 6 -8.23 11.33 -5.71 1.85 -13.31 -4.33 -3.53 -4.85" fill="#e1131c" stroke="#141414" stroke-width="0.8" stroke-linejoin="round"/><path d="M0 0 L0 22" fill="none" stroke="#141414" stroke-width="0.9" stroke-linecap="round" stroke-linejoin="round" /><path d="M0 0 L-8 -8 M0 0 L8 -8 M0 -2 L0 -13" fill="none" stroke="#141414" stroke-width="0.5" stroke-linecap="round" stroke-linejoin="round" /></g><g transform="translate(35.41 130.95) rotate(269.17380368337035) scale(0.8398738212650643)"><polygon points="0 -17 3.53 -4.85 13.31 -4.33 5.71 1.85 8.23 11.33 0 6 -8.23 11.33 -5.71 1.85 -13.31 -4.33 -3.53 -4.85" fill="#141414" stroke="#141414" stroke-width="0.8" stroke-linejoin="round"/><path d="M0 0 L0 22" fill="none" stroke="#141414" stroke-width="0.9" stroke-linecap="round" stroke-linejoin="round" /><path d="M0 0 L-8 -8 M0 0 L8 -8 M0 -2 L0 -13" fill="none" stroke="#141414" stroke-width="0.5" stroke-linecap="round" stroke-linejoin="round" /></g><g transform="translate(8.99 152.99) rotate(233.84679730050266) scale(0.8006290913792328)"><polygon points="0 -17 3.53 -4.85 13.31 -4.33 5.71 1.85 8.23 11.33 0 6 -8.23 11.33 -5.71 1.85 -13.31 -4.33 -3.53 -4.85" fill="#f08a1c" stroke="#141414" stroke-width="0.8" stroke-linejoin="round"/><path d="M0 0 L0 22" fill="none" stroke="#141414" stroke-width="0.9" stroke-linecap="round" stroke-linejoin="round" /><path d="M0 0 L-8 -8 M0 0 L8 -8 M0 -2 L0 -13" fill="none" stroke="#141414" stroke-width="0.5" stroke-linecap="round" stroke-linejoin="round" /></g></g>
</svg>